FILE "Finwell Bay Shaman's Tales from the Golden Age of the Solar Clipper, Book 3.m4b" MP4
TRACK 1 AUDIO
  TITLE "Chapter 01"
  INDEX 01 0:0:00
TRACK 2 AUDIO
  TITLE "Chapter 02"
  INDEX 01 0:19:38
TRACK 3 AUDIO
  TITLE "Chapter 03"
  INDEX 01 18:57:70
TRACK 4 AUDIO
  TITLE "Chapter 04"
  INDEX 01 30:20:28
TRACK 5 AUDIO
  TITLE "Chapter 05"
  INDEX 01 55:44:85
TRACK 6 AUDIO
  TITLE "Chapter 06"
  INDEX 01 101:12:45
TRACK 7 AUDIO
  TITLE "Chapter 07"
  INDEX 01 107:41:88
TRACK 8 AUDIO
  TITLE "Chapter 08"
  INDEX 01 131:33:90
TRACK 9 AUDIO
  TITLE "Chapter 09"
  INDEX 01 146:48:37
TRACK 10 AUDIO
  TITLE "Chapter 10"
  INDEX 01 163:42:90
TRACK 11 AUDIO
  TITLE "Chapter 11"
  INDEX 01 189:32:01
TRACK 12 AUDIO
  TITLE "Chapter 12"
  INDEX 01 197:49:34
TRACK 13 AUDIO
  TITLE "Chapter 13"
  INDEX 01 207:37:32
TRACK 14 AUDIO
  TITLE "Chapter 14"
  INDEX 01 211:14:58
TRACK 15 AUDIO
  TITLE "Chapter 15"
  INDEX 01 220:8:34
TRACK 16 AUDIO
  TITLE "Chapter 16"
  INDEX 01 227:49:86
TRACK 17 AUDIO
  TITLE "Chapter 17"
  INDEX 01 248:0:50
TRACK 18 AUDIO
  TITLE "Chapter 18"
  INDEX 01 252:50:59
TRACK 19 AUDIO
  TITLE "Chapter 19"
  INDEX 01 267:35:71
TRACK 20 AUDIO
  TITLE "Chapter 20"
  INDEX 01 286:47:33
TRACK 21 AUDIO
  TITLE "Chapter 21"
  INDEX 01 298:57:34
TRACK 22 AUDIO
  TITLE "Chapter 22"
  INDEX 01 315:49:45
TRACK 23 AUDIO
  TITLE "Chapter 23"
  INDEX 01 326:40:61
TRACK 24 AUDIO
  TITLE "Chapter 24"
  INDEX 01 349:15:38
TRACK 25 AUDIO
  TITLE "Chapter 25"
  INDEX 01 359:34:14
TRACK 26 AUDIO
  TITLE "Chapter 26"
  INDEX 01 369:34:54
TRACK 27 AUDIO
  TITLE "Chapter 27"
  INDEX 01 390:39:94
TRACK 28 AUDIO
  TITLE "Chapter 28"
  INDEX 01 420:44:54
TRACK 29 AUDIO
  TITLE "Chapter 29"
  INDEX 01 449:17:69
TRACK 30 AUDIO
  TITLE "Chapter 30"
  INDEX 01 473:25:73
TRACK 31 AUDIO
  TITLE "Chapter 31"
  INDEX 01 481:38:16
TRACK 32 AUDIO
  TITLE "Chapter 32"
  INDEX 01 528:3:37
TRACK 33 AUDIO
  TITLE "Chapter 33"
  INDEX 01 538:12:31
TRACK 34 AUDIO
  TITLE "Chapter 34"
  INDEX 01 548:18:98
TRACK 35 AUDIO
  TITLE "Chapter 35"
  INDEX 01 561:19:68
TRACK 36 AUDIO
  TITLE "Chapter 36"
  INDEX 01 564:13:20
TRACK 37 AUDIO
  TITLE "Chapter 37"
  INDEX 01 581:14:39
TRACK 38 AUDIO
  TITLE "Chapter 38"
  INDEX 01 585:45:58
TRACK 39 AUDIO
  TITLE "Chapter 39"
  INDEX 01 590:32:46
TRACK 40 AUDIO
  TITLE "Chapter 40"
  INDEX 01 591:26:37
